<?xml version="1.0" encoding="UTF-8"?>
<svg width="938px" height="941px" viewBox="0 0 938 941" version="1.1" xmlns="http://www.w3.org/2000/svg" xmlns:xlink="http://www.w3.org/1999/xlink">
    <title>􀆮</title>
    <g id="Symbols" stroke="none" stroke-width="1" fill="none" fill-rule="evenodd">
        <g id="Icn" transform="translate(-44, -41)" fill="#FFFFFF">
            <g id="Group" transform="translate(512.6214, 511.3786) scale(-1, 1) translate(-512.6214, -511.3786)translate(0, -1.2427)">
                <g id="Icons" transform="translate(43.5585, 42.3037)" fill-rule="nonzero">
                    <g id="􀆮">
                        <path d="M430.764323,755.733503 C449.429968,755.733503 466.410969,754.153729 481.707327,750.994181 C497.003685,747.834633 509.990368,744.466214 520.667376,740.888924 C523.958718,739.706299 526.817685,738.814919 529.244278,738.214781 C531.670871,737.614643 534.032754,737.314575 536.329929,737.314575 C540.800742,737.314575 544.91492,739.026732 548.672462,742.451046 C552.430004,745.875361 554.308775,750.49995 554.308775,756.324815 C554.308775,758.092867 554.004348,760.633156 553.395493,763.94568 C552.786639,767.258204 551.780706,770.834024 550.377695,774.673139 C537.812356,805.830281 518.766545,833.925693 493.240261,858.959373 C467.713976,883.993053 437.577166,903.860107 402.829829,918.560536 C368.082492,933.260965 330.697523,940.611179 290.674921,940.611179 C250.561137,940.611179 212.943068,933.067538 177.820712,917.980256 C142.698357,902.892974 111.823274,882.03378 85.1954634,855.402675 C58.567653,828.77157 37.7114564,797.882136 22.6268739,762.734373 C7.54229129,727.586609 0,689.953718 0,649.835697 C0,611.579868 7.30330867,574.844241 21.909926,539.628815 C36.5165434,504.413389 56.9072753,473.228299 83.0821218,446.073545 C109.256968,418.91879 139.749679,398.323628 174.560254,384.288057 C178.10455,382.867143 181.533399,381.907364 184.846801,381.408721 C188.160203,380.910077 190.794895,380.660755 192.750876,380.660755 C198.742353,380.660755 203.296259,382.458962 206.412592,386.055374 C209.528926,389.651787 211.087092,393.626963 211.087092,397.980902 C211.087092,399.848977 210.787077,402.116409 210.187047,404.783197 C209.587017,407.449985 208.489903,410.573495 206.895705,414.153727 C203.436707,421.699575 200.389495,431.03848 197.754068,442.170444 C195.118642,453.302408 193.02736,465.080843 191.480223,477.50575 C189.933087,489.930658 189.159518,501.997394 189.159518,513.705961 C189.159518,551.285164 194.787743,584.97524 206.044191,614.776189 C217.30064,644.577139 233.505867,669.975608 254.659873,690.971598 C275.813879,711.967588 301.24457,728.010236 330.951947,739.099543 C360.659325,750.18885 393.930116,755.733503 430.764323,755.733503 Z" id="Path"></path>
                        <path d="M751.077515,437.836083 C760.658475,437.836083 768.942938,441.339487 775.930903,448.346296 C782.918867,455.353104 786.41285,463.676479 786.41285,473.316419 L786.41285,547.752602 C786.41285,557.392542 782.918867,565.738232 775.930903,572.789669 C768.942938,579.841107 760.658475,583.366826 751.077515,583.366826 C741.304344,583.366826 732.93579,579.841107 725.971851,572.789669 C719.007913,565.738232 715.525943,557.392542 715.525943,547.752602 L715.525943,473.316419 C715.525943,463.676479 719.007913,455.353104 725.971851,448.346296 C732.93579,441.339487 741.304344,437.836083 751.077515,437.836083 Z" id="Path"></path>
                        <path d="M573.928356,363.332858 C580.487711,370.355037 583.745166,378.830401 583.70117,388.758951 C583.656276,398.6875 580.215485,406.989822 573.378348,413.665916 L520.866469,466.717417 C514.070073,473.30792 505.672728,476.532466 495.674434,476.391055 C485.67614,476.249644 477.236201,472.840891 470.354619,466.164797 C463.795264,459.142618 460.537809,450.65702 460.581805,440.708003 C460.626699,430.758986 464.06749,422.466898 470.904627,415.831739 L523.416506,363.137487 C530.209198,356.506049 538.605617,353.211728 548.605763,353.254112 C558.60591,353.297319 567.046774,356.656764 573.928356,363.332858 Z" id="Path"></path>
                        <path d="M500.377964,186.133393 C500.377964,195.715318 496.853011,203.989525 489.803105,210.956014 C482.753199,217.922502 474.310788,221.405746 464.475872,221.405746 L390.351466,221.405746 C380.754521,221.405746 372.442251,217.922502 365.414655,210.956014 C358.387058,203.989525 354.87326,195.715318 354.87326,186.133393 C354.87326,176.359238 358.387058,167.977826 365.414655,160.989157 C372.442251,154.000488 380.754521,150.506153 390.351466,150.506153 L464.475872,150.506153 C474.310788,150.506153 482.753199,154.000488 489.803105,160.989157 C496.853011,167.977826 500.377964,176.359238 500.377964,186.133393 Z" id="Path"></path>
                        <path d="M750.966616,371.9119 C725.400221,371.9119 701.360357,367.097983 678.847025,357.470149 C656.333693,347.842315 636.554586,334.511184 619.509705,317.476754 C602.464823,300.442324 589.126439,280.675346 579.494552,258.175819 C569.862664,235.676292 565.04672,211.651169 565.04672,186.100451 C565.04672,160.312603 569.862664,136.228198 579.494552,113.847236 C589.126439,91.4662735 602.464823,71.7585776 619.509705,54.7241478 C636.554586,37.689718 656.333693,24.3104192 678.847025,14.5862515 C701.360357,4.86208385 725.400221,0 750.966616,0 C776.577501,0 800.628487,4.86208385 823.119574,14.5862515 C845.610661,24.3104192 865.378646,37.689718 882.423527,54.7241478 C899.468409,71.7585776 912.80772,91.4662735 922.441461,113.847236 C932.075202,136.228198 936.892073,160.312603 936.892073,186.100451 C936.892073,211.651169 932.075202,235.676292 922.441461,258.175819 C912.80772,280.675346 899.468409,300.442324 882.423527,317.476754 C865.378646,334.511184 845.610661,347.842315 823.119574,357.470149 C800.628487,367.097983 776.577501,371.9119 750.966616,371.9119 Z" id="Path"></path>
                    </g>
                </g>
            </g>
        </g>
    </g>
</svg>